<?xml version="1.0" encoding="UTF-8" standalone="no"?>
<!-- Created with Inkscape (http://www.inkscape.org/) -->

<svg
   xmlns:dc="http://purl.org/dc/elements/1.1/"
   xmlns:cc="http://creativecommons.org/ns#"
   xmlns:rdf="http://www.w3.org/1999/02/22-rdf-syntax-ns#"
   xmlns:svg="http://www.w3.org/2000/svg"
   xmlns="http://www.w3.org/2000/svg"
   xmlns:sodipodi="http://sodipodi.sourceforge.net/DTD/sodipodi-0.dtd"
   xmlns:inkscape="http://www.inkscape.org/namespaces/inkscape"
   width="765.09082"
   height="586.68805"
   id="svg2"
   version="1.1"
   inkscape:version="0.92.2 (5c3e80d, 2017-08-06)"
   sodipodi:docname="ledruns.svg">
  <defs
     id="defs4" />
  <sodipodi:namedview
     id="base"
     pagecolor="#ffffff"
     bordercolor="#666666"
     borderopacity="1.0"
     inkscape:pageopacity="0.0"
     inkscape:pageshadow="2"
     inkscape:zoom="0.49497475"
     inkscape:cx="74.966649"
     inkscape:cy="267.13492"
     inkscape:document-units="px"
     inkscape:current-layer="layer1"
     showgrid="false"
     fit-margin-top="0"
     fit-margin-left="0"
     fit-margin-right="0"
     fit-margin-bottom="0"
     inkscape:window-width="1187"
     inkscape:window-height="768"
     inkscape:window-x="0"
     inkscape:window-y="0"
     inkscape:window-maximized="0" />
  <metadata
     id="metadata7">
    <rdf:RDF>
      <cc:Work
         rdf:about="">
        <dc:format>image/svg+xml</dc:format>
        <dc:type
           rdf:resource="http://purl.org/dc/dcmitype/StillImage" />
        <dc:title />
      </cc:Work>
    </rdf:RDF>
  </metadata>
  <g
     inkscape:label="Layer 1"
     inkscape:groupmode="layer"
     id="layer1"
     transform="translate(-6.21875,-382.93693)">
    <path
       style="fill:none;stroke:#000000;stroke-width:1px;stroke-linecap:butt;stroke-linejoin:miter;stroke-opacity:1"
       d="m 52.857143,489.50504 c -0.0362,15.18775 -1.909443,30.74236 -7.142857,45 -4.896527,13.33984 -22.142857,36.42857 -22.142857,36.42857"
       id="path3117"
       inkscape:connector-curvature="0"
       sodipodi:nodetypes="csc" />
    <path
       style="fill:none;stroke:#000000;stroke-width:1px;stroke-linecap:butt;stroke-linejoin:miter;stroke-opacity:1"
       d="m 50,481.6479 c 0,0 -3.382234,14.4531 -7.142857,20.71428 -4.857524,8.08744 -11.82568,14.93933 -19.285714,20.71429 -5.138887,3.97811 -17.1428576,9.28571 -17.1428576,9.28571"
       id="path3119"
       inkscape:connector-curvature="0"
       sodipodi:nodetypes="cssc" />
    <path
       style="fill:none;stroke:#000000;stroke-width:1px;stroke-linecap:butt;stroke-linejoin:miter;stroke-opacity:1"
       d="m 52.142857,470.93361 c 0,0 -10.114549,8.92415 -15,13.57143 -4.39142,4.17733 -7.97392,9.26704 -12.857143,12.85714 -4.547652,3.34339 -14.9999997,7.85714 -14.9999997,7.85714"
       id="path3121"
       inkscape:connector-curvature="0"
       sodipodi:nodetypes="cssc" />
    <path
       style="fill:none;stroke:#000000;stroke-width:1px;stroke-linecap:butt;stroke-linejoin:miter;stroke-opacity:1"
       d="m 173.74624,391.46988 c 0,0 -4.03548,2.62175 -6.31346,3.28299 -2.83986,0.82432 -5.90931,1.1604 -8.83883,0.75762 -2.8501,-0.39186 -5.26786,-2.42907 -8.08122,-3.03046 -3.95905,-0.84631 -8.34725,-2.22147 -12.12183,-0.75761 -3.27476,1.27002 -5.32835,4.68547 -7.32361,7.57614 -3.59375,5.2065 -4.41571,12.01636 -8.08122,17.17259 -3.2076,4.5121 -7.4703,8.25572 -11.86929,11.61676 -6.7456,5.15395 -14.628825,8.61781 -21.970818,12.87944 -7.305446,4.24041 -15.412994,7.30285 -21.970818,12.62691 -5.693232,4.62213 -12.363679,9.44631 -14.647212,16.41498 -1.139086,3.47616 0.08959,7.3929 1.043497,10.92437 0.888965,3.29106 2.088379,6.67937 4.285714,9.28571 2.979822,3.53448 7.214261,5.95676 11.428571,7.85715 5.36947,2.42129 11.267525,3.86816 17.142858,4.28571 6.924147,0.49208 20.714288,-2.14286 20.714288,-2.14286"
       id="path3123"
       inkscape:connector-curvature="0"
       sodipodi:nodetypes="cssssssssssssssc" />
    <path
       style="fill:none;stroke:#000000;stroke-width:1px;stroke-linecap:butt;stroke-linejoin:miter;stroke-opacity:1"
       d="m 372.85714,389.50504 c 0,0 11.35786,-3.16345 17.14286,-2.85714 4.44176,0.23518 8.68139,2.03921 12.85714,3.57142 3.20036,1.17431 7.44842,1.41419 9.28572,4.28572 2.05316,3.2089 1.5279,7.93887 0,11.42857 -1.68946,3.85869 -5.51926,6.68529 -9.28572,8.57143 -5.84584,2.92743 -12.75389,3.85266 -19.28571,3.57143 -7.15604,-0.3081 -13.94538,-3.37212 -20.71429,-5.71429 -7.56368,-2.61718 -14.74358,-6.23453 -22.14285,-9.28571 -8.78808,-3.62388 -17.40717,-7.71814 -26.42858,-10.71429 -9.81038,-3.25818 -19.74739,-6.5368 -30,-7.85714 -10.15424,-1.30767 -20.47672,0.10445 -30.71428,0 -11.66849,-0.11905 -23.37657,-1.7456 -35,-0.71429 -8.46511,0.75108 -16.98376,2.17827 -25,5 -6.32843,2.22762 -12.70945,4.98309 -17.85714,9.28572 -5.07916,4.24535 -8.28071,10.33798 -12.14286,15.71428 -3.00513,4.18328 -4.59495,9.58328 -8.57143,12.85715 -2.38957,1.96735 -5.6081,2.67747 -8.57143,3.57142 -7.19756,2.17128 -14.90737,2.24441 -22.14286,4.28572 -5.87358,1.65708 -11.68184,3.70419 -17.14285,6.42857 -5.55578,2.77166 -11.989973,5.03228 -15.714288,10 -4.610264,6.14945 -8.571992,14.76207 -6.428572,22.14286 1.50541,5.18383 7.364823,8.20257 12.142857,10.71428 3.475783,1.82714 11.428573,2.85715 11.428573,2.85715"
       id="path3125"
       inkscape:connector-curvature="0"
       sodipodi:nodetypes="cssssssssssssssssssssssc" />
    <path
       style="fill:none;stroke:#000000;stroke-width:1px;stroke-linecap:butt;stroke-linejoin:miter;stroke-opacity:1"
       d="m 332.85714,401.6479 c 0,0 -6.15597,-1.59932 -9.28571,-2.14286 -12.04629,-2.09207 -24.25119,-3.18969 -36.42857,-4.28572 -7.60318,-0.68433 -15.26628,-2.23812 -22.85715,-1.42857 -9.5936,1.02313 -19.22489,3.54808 -27.85714,7.85715 -5.62411,2.80746 -9.80824,7.88483 -15,11.42857 -5.29501,3.61422 -10.33303,8.01401 -16.42857,10 -8.17803,2.66449 -25.71429,2.14285 -25.71429,2.14285"
       id="path3127"
       inkscape:connector-curvature="0"
       sodipodi:nodetypes="cssssssc" />
    <path
       style="fill:none;stroke:#000000;stroke-width:1px;stroke-linecap:butt;stroke-linejoin:miter;stroke-opacity:1"
       d="m 342.85714,406.6479 c 0,0 -26.11127,-4.16499 -39.28571,-5 -9.26712,-0.58736 -18.78189,-1.96578 -27.85714,0 -5.62342,1.21808 -13.85723,1.69694 -15.71429,7.14285 -1.47815,4.33476 3.70767,8.45887 6.42857,12.14286 1.8004,2.43767 6.66561,3.4074 6.42857,6.42857 C 272.60383,430.5907 265,433.07647 265,433.07647"
       id="path3129"
       inkscape:connector-curvature="0"
       sodipodi:nodetypes="csssssc" />
    <path
       style="fill:none;stroke:#000000;stroke-width:1px;stroke-linecap:butt;stroke-linejoin:miter;stroke-opacity:1"
       d="m 530.71429,496.6479 c 0,0 3.55978,-7.42529 4.28571,-11.42858 1.27446,-7.02824 1.49897,-14.44477 0,-21.42857 -2.19166,-10.21112 -6.04689,-20.65368 -12.85714,-28.57143 -5.72782,-6.6593 -13.69063,-11.89531 -22.14286,-14.28571 -10.54151,-2.98127 -22.52461,-2.92578 -32.85714,0.71429 -7.36635,2.59511 -18.57143,14.28571 -18.57143,14.28571"
       id="path3131"
       inkscape:connector-curvature="0"
       sodipodi:nodetypes="csssssc" />
    <path
       style="fill:none;stroke:#000000;stroke-width:1px;stroke-linecap:butt;stroke-linejoin:miter;stroke-opacity:1"
       d="m 540,465.93361 c 0,0 1.28505,-14.78016 0.71429,-22.14286 -0.69296,-8.93898 -0.93899,-18.43522 -5,-26.42857 -4.73041,-9.31094 -12.32706,-17.73536 -21.42858,-22.85714 -4.02886,-2.26719 -8.94885,-2.91784 -13.57142,-2.85714 -10.27865,0.1349 -30,7.14285 -30,7.14285"
       id="path3133"
       inkscape:connector-curvature="0"
       sodipodi:nodetypes="cssssc" />
    <path
       style="fill:none;stroke:#000000;stroke-width:1px;stroke-linecap:butt;stroke-linejoin:miter;stroke-opacity:1"
       d="m 528.57143,510.93361 c 0,0 11.54063,-0.80931 17.14286,-2.14286 3.44333,-0.81965 6.9298,-1.81012 10,-3.57143 6.74293,-3.86829 14.12865,-8.17877 17.85714,-15 3.56945,-6.53027 3.3874,-14.71962 2.85714,-22.14285 -0.63385,-8.87336 -7.14286,-25.71429 -7.14286,-25.71429"
       id="path3135"
       inkscape:connector-curvature="0"
       sodipodi:nodetypes="cssssc" />
    <path
       style="fill:none;stroke:#000000;stroke-width:1px;stroke-linecap:butt;stroke-linejoin:miter;stroke-opacity:1"
       d="m 525.71429,522.36218 c 0,0 5.69485,9.14953 10,12.14286 5.37855,3.73965 12.02123,6.33447 18.57142,6.42857 8.73431,0.12549 17.65621,-3.12717 25,-7.85714 7.79634,-5.02144 18.57143,-20.71429 18.57143,-20.71429"
       id="path3137"
       inkscape:connector-curvature="0"
       sodipodi:nodetypes="csssc" />
    <path
       style="fill:none;stroke:#000000;stroke-width:1px;stroke-linecap:butt;stroke-linejoin:miter;stroke-opacity:1"
       d="m 512.85714,518.07647 c 0,0 -6.46715,9.14655 -8.57143,14.28571 -2.69153,6.57337 -5.4879,13.628 -5,20.71429 0.49199,7.14575 2.93467,14.79682 7.85715,20 4.31992,4.56626 10.87152,7.42948 17.14285,7.85714 10.67097,0.72768 20.79867,-5.27576 30.71429,-9.28571 8.6873,-3.51321 15.71934,-11.56059 25,-12.85715 3.60713,-0.50394 8.28526,-0.57101 10.71429,2.14286 3.66597,4.09586 1.42857,16.42857 1.42857,16.42857"
       id="path3139"
       inkscape:connector-curvature="0"
       sodipodi:nodetypes="csssssssc" />
    <path
       style="fill:none;stroke:#000000;stroke-width:1px;stroke-linecap:butt;stroke-linejoin:miter;stroke-opacity:1"
       d="m 515,513.07647 c 0,0 -3.65598,-5.53863 -6.42857,-7.14286 -5.90137,-3.41455 -13.23628,-5.14438 -20,-4.28571 -5.80974,0.73756 -12.63541,2.87542 -15.71429,7.85714 -3.00418,4.86086 0,17.14286 0,17.14286"
       id="path3141"
       inkscape:connector-curvature="0"
       sodipodi:nodetypes="csssc" />
    <path
       style="fill:none;stroke:#000000;stroke-width:1px;stroke-linecap:butt;stroke-linejoin:miter;stroke-opacity:1"
       d="m 518.57143,496.6479 c 0,0 -2.11774,-14.07232 -5.71429,-20 -3.23246,-5.32761 -7.92745,-10.21562 -13.57143,-12.85715 -7.38251,-3.45521 -16.58547,-5.53037 -24.28571,-2.85714 -7.95235,2.76076 -14.63574,10.07998 -17.85714,17.85714 -2.27788,5.49929 0,17.85715 0,17.85715"
       id="path3143"
       inkscape:connector-curvature="0"
       sodipodi:nodetypes="cssssc" />
    <path
       style="fill:none;stroke:#000000;stroke-width:1px;stroke-linecap:butt;stroke-linejoin:miter;stroke-opacity:1"
       d="m 529.28571,595.93361 c 0,0 10.76672,-4.15749 16.42858,-5 6.12305,-0.91114 12.52788,-1.34075 18.57142,0 3.84763,0.85359 8.67323,1.62851 10.71429,5 2.71552,4.48557 1.40181,10.91674 -0.71429,15.71429 -2.44598,5.54544 -7.71508,9.64873 -12.85714,12.85714 -7.47397,4.66342 -16.20172,8.12645 -25,8.57143 -7.32536,0.37049 -16.0547,-0.008 -21.42857,-5 -2.9242,-2.71638 -5.22708,-7.79697 -3.57143,-11.42857 1.72491,-3.78351 11.42857,-5 11.42857,-5"
       id="path3145"
       inkscape:connector-curvature="0"
       sodipodi:nodetypes="cssssssssc" />
    <path
       style="fill:none;stroke:#000000;stroke-width:1px;stroke-linecap:butt;stroke-linejoin:miter;stroke-opacity:1"
       d="m 668.57143,608.79075 c 0,0 -2.38277,6.91281 -4.28572,10 -3.10331,5.03456 -6.16219,10.88023 -11.42857,13.57143 -5.74013,2.93329 -13.0751,3.15529 -19.28571,1.42857 -6.74669,-1.87577 -13.43725,-6.20107 -17.14286,-12.14285 -4.7227,-7.57263 -7.38438,-18.05918 -4.28571,-26.42858 3.46121,-9.3486 13.06692,-17.40741 22.85714,-19.28571 7.39437,-1.41865 15.4682,2.5425 21.42857,7.14286 5.17558,3.99464 10.71429,16.42857 10.71429,16.42857"
       id="path3147"
       inkscape:connector-curvature="0"
       sodipodi:nodetypes="csssssssc" />
    <path
       style="fill:none;stroke:#000000;stroke-width:1px;stroke-linecap:butt;stroke-linejoin:miter;stroke-opacity:1"
       d="m 625,603.07647 c 0,0 0.49424,-11.31136 3.57143,-15.71429 2.76177,-3.95162 12.14286,-7.85714 12.14286,-7.85714"
       id="path3149"
       inkscape:connector-curvature="0"
       sodipodi:nodetypes="csc" />
    <path
       style="fill:none;stroke:#000000;stroke-width:1px;stroke-linecap:butt;stroke-linejoin:miter;stroke-opacity:1"
       d="m 658.57143,620.21933 c 0,0 1.45333,-7.21206 0.71428,-10.71429 -1.16544,-5.52279 -7.85714,-15 -7.85714,-15"
       id="path3151"
       inkscape:connector-curvature="0"
       sodipodi:nodetypes="csc" />
    <path
       style="fill:none;stroke:#000000;stroke-width:1px;stroke-linecap:butt;stroke-linejoin:miter;stroke-opacity:1"
       d="m 617.14286,616.6479 c 0,0 7.60829,5.78607 12.14285,6.42857 5.77925,0.81886 17.14286,-3.57143 17.14286,-3.57143"
       id="path3153"
       inkscape:connector-curvature="0"
       sodipodi:nodetypes="csc" />
    <path
       style="fill:none;stroke:#000000;stroke-width:1px;stroke-linecap:butt;stroke-linejoin:miter;stroke-opacity:1"
       d="m 761.42857,795.93361 c 0,0 -1.63882,-9.13671 -0.71428,-13.57143 0.43462,-2.08476 2.07743,-3.73257 2.85714,-5.71428 3.08947,-7.8522 6.76894,-15.85589 7.14286,-24.28572 0.37659,-8.49002 -0.27117,-17.93881 -5,-25 -2.38842,-3.56644 -6.62673,-5.83293 -10.71429,-7.14285 -7.03251,-2.25367 -14.97466,1.06112 -22.14286,-0.71429 -10.0261,-2.48325 -20.19764,-6.64168 -27.85714,-13.57143 -7.05574,-6.38352 -11.92002,-15.28312 -15,-24.28571 -3.64283,-10.64772 -3.90429,-22.32273 -3.57143,-33.57143 0.29986,-10.1335 5,-30 5,-30"
       id="path3155"
       inkscape:connector-curvature="0"
       sodipodi:nodetypes="csssssssssc" />
    <path
       style="fill:none;stroke:#000000;stroke-width:1px;stroke-linecap:butt;stroke-linejoin:miter;stroke-opacity:1"
       d="m 701.42857,697.36218 c 0,0 -5.49529,-16.92849 -6.42857,-25.71428 -0.75493,-7.10684 -1.30792,-14.57381 0.71429,-21.42857 1.17848,-3.99476 3.58882,-7.66753 6.42857,-10.71429 3.96316,-4.25208 14.28571,-10 14.28571,-10"
       id="path3157"
       inkscape:connector-curvature="0"
       sodipodi:nodetypes="csssc" />
    <path
       style="fill:none;stroke:#000000;stroke-width:1px;stroke-linecap:butt;stroke-linejoin:miter;stroke-opacity:1"
       d="m 737.14286,715.93361 c 0,0 -9.75594,-9.69867 -12.85714,-15.71428 -3.73179,-7.2388 -9.32865,-15.96116 -6.42858,-23.57143 2.02242,-5.30717 8.67934,-8.37754 14.28572,-9.28572 5.58663,-0.90499 11.64273,1.26492 16.42857,4.28572 C 753.57265,674.80466 760,685.21933 760,685.21933"
       id="path3159"
       inkscape:connector-curvature="0"
       sodipodi:nodetypes="cssssc" />
    <path
       style="fill:none;stroke:#000000;stroke-width:1px;stroke-linecap:butt;stroke-linejoin:miter;stroke-opacity:1"
       d="m 696.42857,697.36218 c 0,0 -2.01877,-4.98634 -4.28571,-5.71428 -4.51686,-1.4504 -10.7671,0.4593 -13.57143,4.28571 -4.08161,5.56922 -2.00089,14.1058 0,20.71429 1.49262,4.92978 8.57143,12.85714 8.57143,12.85714"
       id="path3161"
       inkscape:connector-curvature="0"
       sodipodi:nodetypes="csssc" />
    <path
       style="fill:none;stroke:#000000;stroke-width:1px;stroke-linecap:butt;stroke-linejoin:miter;stroke-opacity:1"
       d="m 751.42857,784.50504 c 0,0 1.37049,-10.00864 2.14286,-15 0.88588,-5.72497 3.05579,-11.35316 2.85714,-17.14286 -0.17625,-5.13675 -0.56368,-10.83219 -3.57143,-15 -3.44123,-4.76848 -15,-9.28571 -15,-9.28571"
       id="path3163"
       inkscape:connector-curvature="0"
       sodipodi:nodetypes="csssc" />
    <path
       style="fill:none;stroke:#000000;stroke-width:1px;stroke-linecap:butt;stroke-linejoin:miter;stroke-opacity:1"
       d="m 563.57143,969.50504 c 0,0 4.42093,-18.91037 9.28571,-27.14286 3.60141,-6.09453 8.61342,-11.47891 14.28572,-15.71428 6.14359,-4.58727 13.32318,-7.96076 20.71428,-10 10.3691,-2.86115 21.94472,0.56351 32.14286,-2.85715 6.38875,-2.14291 13.12901,-5.3016 17.14286,-10.71428 5.43571,-7.33006 4.50839,-17.69151 7.14285,-26.42857 2.60833,-8.65039 1.81786,-19.71246 8.57143,-25.71429 5.2705,-4.68385 13.85544,-2.65086 20.71429,-4.28571 8.87692,-2.11588 18.62739,-2.40806 26.42857,-7.14286 6.91436,-4.19656 12.92356,-10.5678 16.42857,-17.85714 4.07127,-8.467 4.8411,-18.47862 4.28572,-27.85715 -0.52588,-8.88041 -7.14286,-25.71428 -7.14286,-25.71428"
       id="path3165"
       inkscape:connector-curvature="0"
       sodipodi:nodetypes="csssssssssssc" />
    <path
       style="fill:none;stroke:#000000;stroke-width:1px;stroke-linecap:butt;stroke-linejoin:miter;stroke-opacity:1"
       d="m 735,818.79075 c 0,0 -0.38957,-6.20511 -2.14286,-8.57142 -3.30605,-4.46196 -9.02409,-6.79538 -14.28571,-8.57143 -6.12842,-2.06866 -13.60396,-5.23388 -19.28571,-2.14286 -4.20903,2.28982 -5.42503,8.17184 -6.42858,12.85714 -1.19784,5.5924 0.71429,17.14286 0.71429,17.14286"
       id="path3167"
       inkscape:connector-curvature="0"
       sodipodi:nodetypes="cssssc" />
    <path
       style="fill:none;stroke:#000000;stroke-width:1px;stroke-linecap:butt;stroke-linejoin:miter;stroke-opacity:1"
       d="m 680,846.6479 c 0,0 -7.06789,-1.69678 -9.28571,-4.28572 -2.25537,-2.63277 -2.85715,-10 -2.85715,-10"
       id="path3169"
       inkscape:connector-curvature="0"
       sodipodi:nodetypes="csc" />
    <path
       style="fill:none;stroke:#000000;stroke-width:1px;stroke-linecap:butt;stroke-linejoin:miter;stroke-opacity:1"
       d="m 601.42857,916.6479 c 0,0 -7.08995,-2.56803 -7.85714,-5.71429 -0.88288,-3.62069 2.42264,-7.30814 5,-10 3.39059,-3.54121 12.85714,-7.14286 12.85714,-7.14286"
       id="path3171"
       inkscape:connector-curvature="0"
       sodipodi:nodetypes="cssc" />
    <path
       style="fill:none;stroke:#000000;stroke-width:1px;stroke-linecap:butt;stroke-linejoin:miter;stroke-opacity:1"
       d="m 592.14286,958.07647 c 0,0 -0.53008,-12.02148 2.85714,-16.42857 6.23223,-8.10871 18.10919,-9.76373 27.85714,-12.85715 8.7689,-2.78272 18.3365,-2.33818 27.14286,-5 5.20717,-1.57392 11.39326,-2.35631 15,-6.42857 3.94656,-4.45595 5,-17.14285 5,-17.14285"
       id="path3173"
       inkscape:connector-curvature="0"
       sodipodi:nodetypes="cssssc" />
    <path
       style="fill:none;stroke:#000000;stroke-width:1px;stroke-linecap:butt;stroke-linejoin:miter;stroke-opacity:1"
       d="m 631.42857,951.6479 c 0,0 2.46693,-9.06617 5.71429,-12.14286 5.96984,-5.65609 15.19684,-6.29404 22.85714,-9.28571 5.68471,-2.22012 12.45387,-2.52239 17.14286,-6.42858 3.20005,-2.66582 5.2427,-6.72171 6.42857,-10.71428 1.83163,-6.16671 1.89089,-12.96125 0.71429,-19.28572 -0.33165,-1.78269 -2.14286,-5 -2.14286,-5"
       id="path3175"
       inkscape:connector-curvature="0"
       sodipodi:nodetypes="csssssc" />
    <path
       style="fill:none;stroke:#000000;stroke-width:1px;stroke-linecap:butt;stroke-linejoin:miter;stroke-opacity:1"
       d="m 693.57143,855.21933 c 0,0 13.05252,-1.01843 19.28571,-2.85715 8.27809,-2.44194 16.31258,-6.04534 23.57143,-10.71428 8.23215,-5.29497 16.27811,-11.44929 22.14286,-19.28572 5.80896,-7.76189 12.14286,-26.42857 12.14286,-26.42857"
       id="path3177"
       inkscape:connector-curvature="0"
       sodipodi:nodetypes="csssc" />
  </g>
</svg>
